<svg xmlns="http://www.w3.org/2000/svg" width="110" height="44" fill="none"><path fill="#FEA36F" d="M10.068 18.79C32.244 2.75 63.383-.14 84.208 2.223c9.406 1.067 18.1 3.444 21.342 8.56 2.789 4.399.86 11.205-6.47 17.154-9.236 7.497-24.244 10.75-36.09 12.649-11.435 1.833-22.406 2.356-32.088 1.595-9.522-.748-18.715-2.606-24.16-6.445C.956 31.658.295 24.022 10.902 16.81 21.372 9.69 36.617 6.71 48.56 5.009c13.527-1.924 26.3-2.468 38.074-1.82 1.31.072 2.55-1.337 1.241-1.408-12.917-.705-27.017.017-41.934 2.337-11.52 1.792-25.653 5.04-35.803 11.628-9.228 5.99-11.702 12.967-8.898 17.696 3.526 5.953 14.353 8.646 25.131 9.838 10.764 1.192 23.213.722 36.292-1.368C74.75 39.98 89.76 36.614 99.648 29.229c7.683-5.738 10.544-12.367 9.178-17.225-1.721-6.127-10.289-9.31-19.958-10.754C67.17-1.992 32.611.817 8.652 18.169c-1.16.84.244 1.47 1.416.621Z"/></svg>